PathFileType  4	(X/Y/Z) C:\Users\antoi\Documents\MyRepositories\mobilecap\ResultsAnalysis
DataRate	CameraRate	NumFrames	NumMarkers	Units	OrigDataRate	OrigDataStartFrame	OrigNumFrames
100.0	100.0	5	51	mm	100.0	1553	1774
Frame#	Time	r_knee			r_shank_antsup			r_ankle			r_calc			r_5meta			r_toe			L_knee			L_shank_antsup			L_ankle			L_calc			L_5meta			L_toe			r_sh2			r_sh3			r_sh4			L_sh2			L_sh3			r_thigh1			r_thigh2			r_thigh3			r_thigh4			r_thigh5			L_thigh1			L_thigh2			L_thigh3			L_thigh4			r.ASIS			r.PSIS			L.ASIS			L.PSIS			C7			R_Shoulder			L_Shoulder			R_Sternum			L_Sternum			R_humerus			R_elbow_med			R_elbow_lat			R_forearm			R_wrist_radius			R_wrist_ulna			L_humerus			L_elbow_med			L_elbow_lat			L_forearm			L_wrist_radius			L_wrist_ulna			R_HJC			L_HJC			R_HJC_reg			L_HJC_reg			
		X1	Y1	Z1	X2	Y2	Z2	X3	Y3	Z3	X4	Y4	Z4	X5	Y5	Z5	X6	Y6	Z6	X7	Y7	Z7	X8	Y8	Z8	X9	Y9	Z9	X10	Y10	Z10	X11	Y11	Z11	X12	Y12	Z12	X13	Y13	Z13	X14	Y14	Z14	X15	Y15	Z15	X16	Y16	Z16	X17	Y17	Z17	X18	Y18	Z18	X19	Y19	Z19	X20	Y20	Z20	X21	Y21	Z21	X22	Y22	Z22	X23	Y23	Z23	X24	Y24	Z24	X25	Y25	Z25	X26	Y26	Z26	X27	Y27	Z27	X28	Y28	Z28	X29	Y29	Z29	X30	Y30	Z30	X31	Y31	Z31	X32	Y32	Z32	X33	Y33	Z33	X34	Y34	Z34	X35	Y35	Z35	X36	Y36	Z36	X37	Y37	Z37	X38	Y38	Z38	X39	Y39	Z39	X40	Y40	Z40	X41	Y41	Z41	X42	Y42	Z42	X43	Y43	Z43	X44	Y44	Z44	X45	Y45	Z45	X46	Y46	Z46	X47	Y47	Z47	X48	Y48	Z48	X49	Y49	Z49	X50	Y50	Z50	X51	Y51	Z51	

1553	15.52000000	-209.99024	502.20198	-435.11453	-185.60896	405.37149	-435.50402	-293.32959	91.33167	-432.95268	-357.97736	58.12277	-478.29962	-171.63675	44.12323	-401.63240	-141.30585	70.82090	-458.19179	-207.10149	509.85340	-765.53970	-178.47325	421.78738	-761.17690	-282.25291	99.13115	-774.24918	-355.39123	56.90102	-725.89009	-180.26647	40.37575	-815.79425	-131.08287	64.50300	-760.78479	-206.14307	293.45318	-433.51180	-249.45349	415.64888	-396.70170	-275.78364	304.58426	-390.89757	-257.52296	449.12452	-798.00976	-280.08996	329.91944	-810.49048	-151.56312	782.76698	-424.93621	-144.70232	672.49170	-436.69425	-194.55545	640.73838	-403.07068	-261.55634	769.72819	-400.47809	-247.38016	655.74172	-415.18936	-234.15491	746.20773	-809.12152	-118.99155	621.18037	-749.31277	-133.70747	759.75565	-767.13643	-222.80882	615.19637	-782.66185	-133.79833	975.25431	-470.69022	-338.50515	1002.46534	-558.01844	-132.05932	982.73367	-727.56299	-335.00467	1003.72963	-650.68507	-320.37676	1460.24660	-601.59382	-252.72933	1433.24817	-432.01261	-232.57490	1431.42115	-754.90709	-188.66165	1396.95953	-570.10636	-187.94069	1397.20357	-618.39839	-230.73424	1305.87928	-368.33180	-321.84135	1111.49568	-411.71677	-322.49485	1119.69093	-335.92050	-224.86423	1125.26138	-337.65060	-76.13056	1140.19950	-407.91294	-78.69877	1096.69181	-384.37432	-216.61995	1290.00778	-817.43806	-305.39098	1101.96785	-768.47350	-292.18582	1112.02333	-852.33695	-215.26922	1120.16483	-851.72872	-56.99868	1138.51725	-790.73304	-63.52663	1091.85466	-811.86015	-212.95926	885.73048	-502.22788	-208.39432	891.71291	-691.64097	-206.00104	897.81635	-510.81432	-199.59909	900.12788	-680.28902	
1554	15.53000000	-210.04189	501.60749	-435.26620	-184.99485	404.72242	-435.86507	-293.36730	91.24181	-432.92121	-358.05938	57.95522	-478.24345	-171.68166	44.27092	-401.51650	-141.47150	71.00447	-458.07118	-207.29197	509.57341	-765.77825	-178.13278	421.39573	-761.20715	-282.30136	99.02681	-774.36581	-355.49116	56.72915	-725.96979	-180.29097	40.36778	-815.79712	-131.15545	64.53814	-760.79863	-205.80061	292.95208	-433.70643	-248.74774	415.25882	-396.85366	-275.77163	304.14882	-390.91951	-257.14959	448.83838	-798.08798	-279.89245	329.72849	-810.64016	-154.43748	782.81442	-424.96573	-146.54042	672.59641	-436.64936	-196.22168	640.36040	-403.21720	-264.55841	768.81395	-400.89066	-249.15833	654.86329	-415.45167	-236.55585	745.66961	-808.93360	-120.50637	621.58231	-749.62897	-136.14996	759.85462	-767.16618	-224.23824	614.62958	-782.73738	-137.36071	974.87557	-470.75361	-341.90062	1003.03963	-557.83438	-135.70414	982.33908	-727.45933	-338.31112	1004.27075	-650.56632	-319.31951	1461.06499	-601.75718	-252.02961	1433.43534	-432.07707	-231.71425	1431.42540	-754.68818	-188.51351	1396.41138	-570.34268	-187.48949	1396.82361	-618.40429	-230.44907	1305.82997	-368.51113	-322.30300	1111.80744	-411.65110	-322.96487	1119.84215	-336.24342	-225.25618	1125.41525	-337.67845	-76.49012	1140.16937	-407.90356	-79.11870	1096.72965	-384.19799	-216.34120	1289.98788	-817.44725	-305.84127	1102.36029	-768.89862	-292.72531	1112.38104	-852.44244	-215.87857	1120.53546	-852.03567	-57.49152	1138.98729	-791.46549	-64.08910	1092.19909	-812.32577	-216.88741	885.71477	-502.15102	-212.38405	891.67384	-691.56632	-210.02332	897.84097	-510.89606	-203.46878	900.08765	-680.25478	
1555	15.54000000	-209.82873	501.08562	-435.43887	-184.08502	404.02250	-436.34148	-293.40264	91.18979	-432.90285	-358.15723	57.80651	-478.15256	-171.71563	44.32697	-401.50190	-141.65162	71.23205	-457.94329	-207.52086	509.30121	-766.13880	-177.72704	420.95610	-761.37115	-282.34736	98.94616	-774.50862	-355.59909	56.55566	-726.07296	-180.31978	40.37278	-815.79927	-131.27138	64.60838	-760.79871	-205.25613	292.40443	-434.01616	-247.82521	414.89326	-397.15279	-275.02692	304.05623	-391.32239	-256.72964	448.49608	-798.18216	-279.64357	329.51395	-810.69945	-157.61337	782.81001	-424.92437	-148.42426	672.65100	-436.64471	-198.03186	640.04388	-403.35613	-267.70112	767.73996	-401.43171	-250.98648	653.85128	-415.78510	-239.11582	744.96030	-808.58466	-122.11886	621.82543	-750.02064	-138.50997	759.84364	-767.08880	-225.74768	614.05956	-782.92259	-141.17053	974.32067	-470.92276	-345.53844	1003.63653	-557.32587	-139.64365	981.83708	-727.48669	-341.84047	1004.90057	-650.44702	-318.06297	1461.83845	-601.90116	-251.11351	1433.52388	-432.26291	-230.56000	1431.41544	-754.59337	-188.02039	1395.88325	-570.28095	-186.95552	1396.27616	-618.19967	-229.96568	1305.70426	-368.70152	-322.78154	1112.03172	-411.48421	-323.34152	1119.92870	-336.82969	-225.47125	1125.59033	-337.71467	-76.71171	1140.13945	-407.96758	-79.38751	1096.72383	-384.09838	-215.93119	1289.96091	-817.34325	-306.17697	1102.59296	-769.26781	-293.14385	1112.71169	-852.65284	-216.29896	1120.87001	-852.26122	-57.88213	1139.39394	-792.28596	-64.55444	1092.56628	-812.92639	-221.09313	885.59916	-502.10901	-216.79593	891.60329	-691.52760	-214.37560	897.70736	-511.14803	-207.65419	900.00343	-680.40614	
1556	15.55000000	-209.23897	500.69376	-435.66509	-182.83219	403.33916	-436.90339	-293.46054	91.15353	-432.88968	-358.26083	57.69323	-478.08283	-171.80664	44.21426	-401.65950	-141.81703	71.50166	-457.80411	-207.71531	508.85014	-766.37100	-177.16045	420.52244	-761.67595	-282.37282	98.81533	-774.60066	-355.68779	56.27495	-726.03295	-180.35828	40.39674	-815.79388	-131.39093	64.68777	-760.76908	-204.49139	291.79879	-434.36449	-246.53540	414.43280	-397.75096	-273.76130	303.96515	-391.95438	-256.20309	448.07742	-798.26873	-279.26767	329.20714	-810.74835	-161.00822	782.73884	-424.85372	-150.46363	672.69129	-436.55489	-199.88209	639.66321	-403.31722	-270.98834	766.44605	-402.07732	-252.84292	652.64083	-416.18912	-241.87887	744.11921	-808.27147	-123.74090	621.79389	-750.06468	-140.92126	759.72731	-767.05064	-227.28378	613.46129	-783.24988	-145.29611	973.56747	-471.17002	-349.30268	1004.26222	-556.83545	-143.80180	981.16872	-727.44063	-345.69278	1005.54531	-650.32162	-316.59755	1462.55332	-602.06808	-250.05057	1433.54810	-432.48338	-229.11827	1431.40022	-754.71730	-187.34620	1395.20751	-570.17237	-186.28646	1395.50197	-617.96628	-229.31206	1305.50150	-368.83564	-323.28053	1112.15668	-411.26154	-323.43206	1120.05633	-337.01932	-225.52505	1125.76702	-337.67777	-76.81310	1140.06028	-408.08954	-79.49470	1096.66038	-384.11062	-215.35936	1289.83064	-817.08257	-306.45256	1102.90322	-769.49787	-293.54689	1113.08718	-853.28297	-216.61930	1121.20916	-852.50327	-58.18161	1139.73819	-792.96318	-64.93367	1092.95098	-813.75812	-225.65910	885.37263	-502.08360	-221.55185	891.44300	-691.50433	-218.90333	897.54637	-511.28626	-212.37371	899.86639	-680.35925	
1557	15.56000000	-208.29821	499.89851	-436.12922	-181.27807	402.64420	-437.43194	-293.56404	91.11984	-432.88289	-358.33033	57.60409	-478.05753	-171.86105	44.18723	-401.70336	-141.94269	71.77831	-457.65257	-207.68671	508.30557	-766.66577	-176.42684	419.98564	-761.92481	-282.41841	98.59378	-774.60058	-355.78230	55.79645	-725.74866	-180.40701	40.42962	-815.77989	-131.51081	64.78464	-760.74258	-203.51132	291.10621	-434.77029	-244.83413	413.94286	-398.39800	-272.68438	303.41761	-392.32322	-255.48656	447.57718	-798.28935	-278.75408	328.75960	-810.81901	-164.62129	782.66272	-424.76419	-152.57072	672.74239	-436.43363	-201.57334	639.03558	-403.34187	-274.49145	764.86373	-402.76617	-254.67136	651.27422	-416.55917	-244.83165	743.26231	-808.27418	-125.47527	621.67504	-749.89887	-143.78962	759.57633	-767.06181	-228.85994	612.69234	-783.63164	-149.75270	972.60744	-471.51884	-353.27614	1004.85981	-556.58703	-148.17868	980.34508	-727.21862	-349.70168	1006.13831	-650.13665	-314.89955	1463.13695	-602.25607	-248.84411	1433.46222	-432.69463	-227.48134	1431.28673	-754.85632	-186.54600	1394.34172	-570.14942	-185.38879	1394.49667	-617.84213	-228.53960	1305.18598	-368.89571	-324.00202	1112.12677	-411.02827	-323.23527	1120.18278	-336.73523	-225.43673	1125.93213	-337.49717	-76.80592	1139.92034	-408.17030	-79.47146	1096.57259	-384.11310	-214.60237	1289.48534	-816.84999	-306.68549	1103.30791	-769.60748	-293.90484	1113.44412	-854.20247	-216.85485	1121.57772	-852.93862	-58.39850	1140.09452	-793.58819	-65.13018	1093.28455	-814.66327	-230.59212	885.00591	-502.09358	-226.56265	891.17702	-691.51277	-223.80833	897.37674	-511.51290	-217.36301	899.68223	-680.21671	
